<?xml version="1.0" encoding="UTF-8" standalone="no"?>
<!-- Created with Inkscape (http://www.inkscape.org/) -->

<svg
   xmlns:dc="http://purl.org/dc/elements/1.1/"
   xmlns:cc="http://creativecommons.org/ns#"
   xmlns:rdf="http://www.w3.org/1999/02/22-rdf-syntax-ns#"
   xmlns:svg="http://www.w3.org/2000/svg"
   xmlns="http://www.w3.org/2000/svg"
   xmlns:sodipodi="http://sodipodi.sourceforge.net/DTD/sodipodi-0.dtd"
   xmlns:inkscape="http://www.inkscape.org/namespaces/inkscape"
   width="210mm"
   height="297mm"
   viewBox="0 0 744.09448819 1052.3622047"
   id="svg2"
   version="1.1"
   inkscape:version="0.91 r13725"
   sodipodi:docname="xmas-morning-run.svg">
  <defs
     id="defs4" />
  <sodipodi:namedview
     id="base"
     pagecolor="#ffffff"
     bordercolor="#666666"
     borderopacity="1.0"
     inkscape:pageopacity="0.0"
     inkscape:pageshadow="2"
     inkscape:zoom="1.4"
     inkscape:cx="495.95123"
     inkscape:cy="677.22534"
     inkscape:document-units="px"
     inkscape:current-layer="layer1"
     showgrid="true"
     inkscape:window-width="2560"
     inkscape:window-height="1380"
     inkscape:window-x="0"
     inkscape:window-y="0"
     inkscape:window-maximized="1">
    <inkscape:grid
       type="xygrid"
       id="grid4136" />
  </sodipodi:namedview>
  <metadata
     id="metadata7">
    <rdf:RDF>
      <cc:Work
         rdf:about="">
        <dc:format>image/svg+xml</dc:format>
        <dc:type
           rdf:resource="http://purl.org/dc/dcmitype/StillImage" />
        <dc:title></dc:title>
      </cc:Work>
    </rdf:RDF>
  </metadata>
  <g
     inkscape:label="Layer 1"
     inkscape:groupmode="layer"
     id="layer1">
    <rect
       style="color:#000000;clip-rule:nonzero;display:inline;overflow:visible;visibility:visible;opacity:1;isolation:auto;mix-blend-mode:normal;color-interpolation:sRGB;color-interpolation-filters:linearRGB;solid-color:#000000;solid-opacity:1;fill:#ffffff;fill-opacity:1;fill-rule:nonzero;stroke:#280b0b;stroke-width:0.5;stroke-linecap:butt;stroke-linejoin:miter;stroke-miterlimit:4;stroke-dasharray:none;stroke-dashoffset:0;stroke-opacity:1;color-rendering:auto;image-rendering:auto;shape-rendering:auto;text-rendering:auto;enable-background:accumulate"
       id="rect4140"
       width="50"
       height="250"
       x="450"
       y="242.3622"
       ry="0"
       inkscape:export-xdpi="45"
       inkscape:export-ydpi="45" />
    <rect
       style="color:#000000;clip-rule:nonzero;display:inline;overflow:visible;visibility:visible;opacity:1;isolation:auto;mix-blend-mode:normal;color-interpolation:sRGB;color-interpolation-filters:linearRGB;solid-color:#000000;solid-opacity:1;fill:#ffffff;fill-opacity:1;fill-rule:nonzero;stroke:#280b0b;stroke-width:0.5;stroke-linecap:butt;stroke-linejoin:miter;stroke-miterlimit:4;stroke-dasharray:none;stroke-dashoffset:0;stroke-opacity:1;color-rendering:auto;image-rendering:auto;shape-rendering:auto;text-rendering:auto;enable-background:accumulate"
       id="rect4142"
       width="50"
       height="160"
       x="450"
       y="82.362206"
       inkscape:export-xdpi="45"
       inkscape:export-ydpi="45" />
    <rect
       style="color:#000000;clip-rule:nonzero;display:inline;overflow:visible;visibility:visible;opacity:1;isolation:auto;mix-blend-mode:normal;color-interpolation:sRGB;color-interpolation-filters:linearRGB;solid-color:#000000;solid-opacity:1;fill:#ffffff;fill-opacity:1;fill-rule:nonzero;stroke:#280b0b;stroke-width:0.5;stroke-linecap:butt;stroke-linejoin:miter;stroke-miterlimit:4;stroke-dasharray:none;stroke-dashoffset:0;stroke-opacity:1;color-rendering:auto;image-rendering:auto;shape-rendering:auto;text-rendering:auto;enable-background:accumulate"
       id="rect4144"
       width="50"
       height="160"
       x="400"
       y="82.362206"
       inkscape:export-xdpi="45"
       inkscape:export-ydpi="45" />
    <rect
       style="color:#000000;clip-rule:nonzero;display:inline;overflow:visible;visibility:visible;opacity:1;isolation:auto;mix-blend-mode:normal;color-interpolation:sRGB;color-interpolation-filters:linearRGB;solid-color:#000000;solid-opacity:1;fill:#ffffff;fill-opacity:1;fill-rule:nonzero;stroke:#280b0b;stroke-width:0.5;stroke-linecap:butt;stroke-linejoin:miter;stroke-miterlimit:4;stroke-dasharray:none;stroke-dashoffset:0;stroke-opacity:1;color-rendering:auto;image-rendering:auto;shape-rendering:auto;text-rendering:auto;enable-background:accumulate"
       id="rect4146"
       width="50"
       height="250"
       x="400"
       y="242.3622"
       inkscape:export-xdpi="45"
       inkscape:export-ydpi="45" />
    <rect
       style="color:#000000;clip-rule:nonzero;display:inline;overflow:visible;visibility:visible;opacity:1;isolation:auto;mix-blend-mode:normal;color-interpolation:sRGB;color-interpolation-filters:linearRGB;solid-color:#000000;solid-opacity:1;fill:#ffffff;fill-opacity:1;fill-rule:nonzero;stroke:#280b0b;stroke-width:0.5;stroke-linecap:butt;stroke-linejoin:miter;stroke-miterlimit:4;stroke-dasharray:none;stroke-dashoffset:0;stroke-opacity:1;color-rendering:auto;image-rendering:auto;shape-rendering:auto;text-rendering:auto;enable-background:accumulate"
       id="rect4148"
       width="170"
       height="50.000008"
       x="230"
       y="342.36221"
       inkscape:export-xdpi="45"
       inkscape:export-ydpi="45" />
    <rect
       style="color:#000000;clip-rule:nonzero;display:inline;overflow:visible;visibility:visible;opacity:1;isolation:auto;mix-blend-mode:normal;color-interpolation:sRGB;color-interpolation-filters:linearRGB;solid-color:#000000;solid-opacity:1;fill:#ffffff;fill-opacity:1;fill-rule:nonzero;stroke:#280b0b;stroke-width:0.5;stroke-linecap:butt;stroke-linejoin:miter;stroke-miterlimit:4;stroke-dasharray:none;stroke-dashoffset:0;stroke-opacity:1;color-rendering:auto;image-rendering:auto;shape-rendering:auto;text-rendering:auto;enable-background:accumulate"
       id="rect4150"
       width="220"
       height="180"
       x="400"
       y="492.36221"
       inkscape:export-xdpi="45"
       inkscape:export-ydpi="45" />
    <rect
       style="color:#000000;clip-rule:nonzero;display:inline;overflow:visible;visibility:visible;opacity:1;isolation:auto;mix-blend-mode:normal;color-interpolation:sRGB;color-interpolation-filters:linearRGB;solid-color:#000000;solid-opacity:1;fill:#ffffff;fill-opacity:1;fill-rule:nonzero;stroke:#280b0b;stroke-width:0.5;stroke-linecap:butt;stroke-linejoin:miter;stroke-miterlimit:4;stroke-dasharray:none;stroke-dashoffset:0;stroke-opacity:1;color-rendering:auto;image-rendering:auto;shape-rendering:auto;text-rendering:auto;enable-background:accumulate"
       id="rect4152"
       width="110"
       height="100"
       x="290"
       y="392.36221"
       inkscape:export-xdpi="45"
       inkscape:export-ydpi="45" />
    <rect
       style="color:#000000;clip-rule:nonzero;display:inline;overflow:visible;visibility:visible;opacity:1;isolation:auto;mix-blend-mode:normal;color-interpolation:sRGB;color-interpolation-filters:linearRGB;solid-color:#000000;solid-opacity:1;fill:#ffffff;fill-opacity:1;fill-rule:nonzero;stroke:#280b0b;stroke-width:0.5;stroke-linecap:butt;stroke-linejoin:miter;stroke-miterlimit:4;stroke-dasharray:none;stroke-dashoffset:0;stroke-opacity:1;color-rendering:auto;image-rendering:auto;shape-rendering:auto;text-rendering:auto;enable-background:accumulate"
       id="rect4154"
       width="270"
       height="259.99997"
       x="130"
       y="82.362206"
       inkscape:export-xdpi="45"
       inkscape:export-ydpi="45" />
    <g
       id="g4202"
       inkscape:export-xdpi="45"
       inkscape:export-ydpi="45">
      <rect
         y="232.3622"
         x="400"
         height="9.9999933"
         width="50"
         id="rect4156"
         style="color:#000000;clip-rule:nonzero;display:inline;overflow:visible;visibility:visible;opacity:1;isolation:auto;mix-blend-mode:normal;color-interpolation:sRGB;color-interpolation-filters:linearRGB;solid-color:#000000;solid-opacity:1;fill:#ffffff;fill-opacity:1;fill-rule:nonzero;stroke:#280b0b;stroke-width:0.5;stroke-linecap:butt;stroke-linejoin:miter;stroke-miterlimit:4;stroke-dasharray:none;stroke-dashoffset:0;stroke-opacity:1;color-rendering:auto;image-rendering:auto;shape-rendering:auto;text-rendering:auto;enable-background:accumulate;filter-blend-mode:normal;filter-gaussianBlur-deviation:0" />
      <rect
         style="color:#000000;clip-rule:nonzero;display:inline;overflow:visible;visibility:visible;opacity:1;isolation:auto;mix-blend-mode:normal;color-interpolation:sRGB;color-interpolation-filters:linearRGB;solid-color:#000000;solid-opacity:1;fill:#ffffff;fill-opacity:1;fill-rule:nonzero;stroke:#280b0b;stroke-width:0.5;stroke-linecap:butt;stroke-linejoin:miter;stroke-miterlimit:4;stroke-dasharray:none;stroke-dashoffset:0;stroke-opacity:1;color-rendering:auto;image-rendering:auto;shape-rendering:auto;text-rendering:auto;enable-background:accumulate"
         id="rect4172"
         width="50"
         height="9.9999933"
         x="400"
         y="222.3622" />
      <rect
         y="212.26067"
         x="400"
         height="9.9999933"
         width="50"
         id="rect4174"
         style="color:#000000;clip-rule:nonzero;display:inline;overflow:visible;visibility:visible;opacity:1;isolation:auto;mix-blend-mode:normal;color-interpolation:sRGB;color-interpolation-filters:linearRGB;solid-color:#000000;solid-opacity:1;fill:#ffffff;fill-opacity:1;fill-rule:nonzero;stroke:#280b0b;stroke-width:0.5;stroke-linecap:butt;stroke-linejoin:miter;stroke-miterlimit:4;stroke-dasharray:none;stroke-dashoffset:0;stroke-opacity:1;color-rendering:auto;image-rendering:auto;shape-rendering:auto;text-rendering:auto;enable-background:accumulate" />
      <rect
         style="color:#000000;clip-rule:nonzero;display:inline;overflow:visible;visibility:visible;opacity:1;isolation:auto;mix-blend-mode:normal;color-interpolation:sRGB;color-interpolation-filters:linearRGB;solid-color:#000000;solid-opacity:1;fill:#ffffff;fill-opacity:1;fill-rule:nonzero;stroke:#280b0b;stroke-width:0.5;stroke-linecap:butt;stroke-linejoin:miter;stroke-miterlimit:4;stroke-dasharray:none;stroke-dashoffset:0;stroke-opacity:1;color-rendering:auto;image-rendering:auto;shape-rendering:auto;text-rendering:auto;enable-background:accumulate"
         id="rect4176"
         width="50"
         height="9.9999933"
         x="400"
         y="202.15913" />
      <rect
         style="color:#000000;clip-rule:nonzero;display:inline;overflow:visible;visibility:visible;opacity:1;isolation:auto;mix-blend-mode:normal;color-interpolation:sRGB;color-interpolation-filters:linearRGB;solid-color:#000000;solid-opacity:1;fill:#ffffff;fill-opacity:1;fill-rule:nonzero;stroke:#280b0b;stroke-width:0.5;stroke-linecap:butt;stroke-linejoin:miter;stroke-miterlimit:4;stroke-dasharray:none;stroke-dashoffset:0;stroke-opacity:1;color-rendering:auto;image-rendering:auto;shape-rendering:auto;text-rendering:auto;enable-background:accumulate"
         id="rect4178"
         width="50"
         height="9.9999933"
         x="400"
         y="191.9561" />
      <rect
         y="181.9561"
         x="400"
         height="9.9999933"
         width="50"
         id="rect4180"
         style="color:#000000;clip-rule:nonzero;display:inline;overflow:visible;visibility:visible;opacity:1;isolation:auto;mix-blend-mode:normal;color-interpolation:sRGB;color-interpolation-filters:linearRGB;solid-color:#000000;solid-opacity:1;fill:#ffffff;fill-opacity:1;fill-rule:nonzero;stroke:#280b0b;stroke-width:0.5;stroke-linecap:butt;stroke-linejoin:miter;stroke-miterlimit:4;stroke-dasharray:none;stroke-dashoffset:0;stroke-opacity:1;color-rendering:auto;image-rendering:auto;shape-rendering:auto;text-rendering:auto;enable-background:accumulate" />
      <rect
         style="color:#000000;clip-rule:nonzero;display:inline;overflow:visible;visibility:visible;opacity:1;isolation:auto;mix-blend-mode:normal;color-interpolation:sRGB;color-interpolation-filters:linearRGB;solid-color:#000000;solid-opacity:1;fill:#ffffff;fill-opacity:1;fill-rule:nonzero;stroke:#280b0b;stroke-width:0.5;stroke-linecap:butt;stroke-linejoin:miter;stroke-miterlimit:4;stroke-dasharray:none;stroke-dashoffset:0;stroke-opacity:1;color-rendering:auto;image-rendering:auto;shape-rendering:auto;text-rendering:auto;enable-background:accumulate"
         id="rect4182"
         width="50"
         height="9.9999933"
         x="400"
         y="171.85457" />
      <rect
         y="161.75304"
         x="400"
         height="9.9999933"
         width="50"
         id="rect4184"
         style="color:#000000;clip-rule:nonzero;display:inline;overflow:visible;visibility:visible;opacity:1;isolation:auto;mix-blend-mode:normal;color-interpolation:sRGB;color-interpolation-filters:linearRGB;solid-color:#000000;solid-opacity:1;fill:#ffffff;fill-opacity:1;fill-rule:nonzero;stroke:#280b0b;stroke-width:0.5;stroke-linecap:butt;stroke-linejoin:miter;stroke-miterlimit:4;stroke-dasharray:none;stroke-dashoffset:0;stroke-opacity:1;color-rendering:auto;image-rendering:auto;shape-rendering:auto;text-rendering:auto;enable-background:accumulate" />
      <rect
         style="color:#000000;clip-rule:nonzero;display:inline;overflow:visible;visibility:visible;opacity:1;isolation:auto;mix-blend-mode:normal;color-interpolation:sRGB;color-interpolation-filters:linearRGB;solid-color:#000000;solid-opacity:1;fill:#ffffff;fill-opacity:1;fill-rule:nonzero;stroke:#280b0b;stroke-width:0.5;stroke-linecap:butt;stroke-linejoin:miter;stroke-miterlimit:4;stroke-dasharray:none;stroke-dashoffset:0;stroke-opacity:1;color-rendering:auto;image-rendering:auto;shape-rendering:auto;text-rendering:auto;enable-background:accumulate"
         id="rect4186"
         width="50"
         height="9.9999933"
         x="400"
         y="153.06522" />
      <rect
         y="143.06522"
         x="400"
         height="9.9999933"
         width="50"
         id="rect4188"
         style="color:#000000;clip-rule:nonzero;display:inline;overflow:visible;visibility:visible;opacity:1;isolation:auto;mix-blend-mode:normal;color-interpolation:sRGB;color-interpolation-filters:linearRGB;solid-color:#000000;solid-opacity:1;fill:#ffffff;fill-opacity:1;fill-rule:nonzero;stroke:#280b0b;stroke-width:0.5;stroke-linecap:butt;stroke-linejoin:miter;stroke-miterlimit:4;stroke-dasharray:none;stroke-dashoffset:0;stroke-opacity:1;color-rendering:auto;image-rendering:auto;shape-rendering:auto;text-rendering:auto;enable-background:accumulate" />
      <rect
         style="color:#000000;clip-rule:nonzero;display:inline;overflow:visible;visibility:visible;opacity:1;isolation:auto;mix-blend-mode:normal;color-interpolation:sRGB;color-interpolation-filters:linearRGB;solid-color:#000000;solid-opacity:1;fill:#ffffff;fill-opacity:1;fill-rule:nonzero;stroke:#280b0b;stroke-width:0.5;stroke-linecap:butt;stroke-linejoin:miter;stroke-miterlimit:4;stroke-dasharray:none;stroke-dashoffset:0;stroke-opacity:1;color-rendering:auto;image-rendering:auto;shape-rendering:auto;text-rendering:auto;enable-background:accumulate"
         id="rect4190"
         width="50"
         height="9.9999933"
         x="400"
         y="132.96368" />
      <rect
         y="122.86216"
         x="400"
         height="9.9999933"
         width="50"
         id="rect4192"
         style="color:#000000;clip-rule:nonzero;display:inline;overflow:visible;visibility:visible;opacity:1;isolation:auto;mix-blend-mode:normal;color-interpolation:sRGB;color-interpolation-filters:linearRGB;solid-color:#000000;solid-opacity:1;fill:#ffffff;fill-opacity:1;fill-rule:nonzero;stroke:#280b0b;stroke-width:0.5;stroke-linecap:butt;stroke-linejoin:miter;stroke-miterlimit:4;stroke-dasharray:none;stroke-dashoffset:0;stroke-opacity:1;color-rendering:auto;image-rendering:auto;shape-rendering:auto;text-rendering:auto;enable-background:accumulate" />
      <rect
         y="112.65913"
         x="400"
         height="9.9999933"
         width="50"
         id="rect4194"
         style="color:#000000;clip-rule:nonzero;display:inline;overflow:visible;visibility:visible;opacity:1;isolation:auto;mix-blend-mode:normal;color-interpolation:sRGB;color-interpolation-filters:linearRGB;solid-color:#000000;solid-opacity:1;fill:#ffffff;fill-opacity:1;fill-rule:nonzero;stroke:#280b0b;stroke-width:0.5;stroke-linecap:butt;stroke-linejoin:miter;stroke-miterlimit:4;stroke-dasharray:none;stroke-dashoffset:0;stroke-opacity:1;color-rendering:auto;image-rendering:auto;shape-rendering:auto;text-rendering:auto;enable-background:accumulate" />
    </g>
    <g
       id="g4217"
       transform="translate(50.002551,0)"
       inkscape:export-xdpi="45"
       inkscape:export-ydpi="45">
      <rect
         style="color:#000000;clip-rule:nonzero;display:inline;overflow:visible;visibility:visible;opacity:1;isolation:auto;mix-blend-mode:normal;color-interpolation:sRGB;color-interpolation-filters:linearRGB;solid-color:#000000;solid-opacity:1;fill:#ffffff;fill-opacity:1;fill-rule:nonzero;stroke:#280b0b;stroke-width:0.5;stroke-linecap:butt;stroke-linejoin:miter;stroke-miterlimit:4;stroke-dasharray:none;stroke-dashoffset:0;stroke-opacity:1;color-rendering:auto;image-rendering:auto;shape-rendering:auto;text-rendering:auto;enable-background:accumulate"
         id="rect4219"
         width="50"
         height="9.9999933"
         x="400"
         y="232.3622" />
      <rect
         y="222.3622"
         x="400"
         height="9.9999933"
         width="50"
         id="rect4221"
         style="color:#000000;clip-rule:nonzero;display:inline;overflow:visible;visibility:visible;opacity:1;isolation:auto;mix-blend-mode:normal;color-interpolation:sRGB;color-interpolation-filters:linearRGB;solid-color:#000000;solid-opacity:1;fill:#ffffff;fill-opacity:1;fill-rule:nonzero;stroke:#280b0b;stroke-width:0.5;stroke-linecap:butt;stroke-linejoin:miter;stroke-miterlimit:4;stroke-dasharray:none;stroke-dashoffset:0;stroke-opacity:1;color-rendering:auto;image-rendering:auto;shape-rendering:auto;text-rendering:auto;enable-background:accumulate" />
      <rect
         style="color:#000000;clip-rule:nonzero;display:inline;overflow:visible;visibility:visible;opacity:1;isolation:auto;mix-blend-mode:normal;color-interpolation:sRGB;color-interpolation-filters:linearRGB;solid-color:#000000;solid-opacity:1;fill:#ffffff;fill-opacity:1;fill-rule:nonzero;stroke:#280b0b;stroke-width:0.5;stroke-linecap:butt;stroke-linejoin:miter;stroke-miterlimit:4;stroke-dasharray:none;stroke-dashoffset:0;stroke-opacity:1;color-rendering:auto;image-rendering:auto;shape-rendering:auto;text-rendering:auto;enable-background:accumulate"
         id="rect4223"
         width="50"
         height="9.9999933"
         x="400"
         y="212.26067" />
      <rect
         y="202.15913"
         x="400"
         height="9.9999933"
         width="50"
         id="rect4225"
         style="color:#000000;clip-rule:nonzero;display:inline;overflow:visible;visibility:visible;opacity:1;isolation:auto;mix-blend-mode:normal;color-interpolation:sRGB;color-interpolation-filters:linearRGB;solid-color:#000000;solid-opacity:1;fill:#ffffff;fill-opacity:1;fill-rule:nonzero;stroke:#280b0b;stroke-width:0.5;stroke-linecap:butt;stroke-linejoin:miter;stroke-miterlimit:4;stroke-dasharray:none;stroke-dashoffset:0;stroke-opacity:1;color-rendering:auto;image-rendering:auto;shape-rendering:auto;text-rendering:auto;enable-background:accumulate" />
      <rect
         y="191.9561"
         x="400"
         height="9.9999933"
         width="50"
         id="rect4227"
         style="color:#000000;clip-rule:nonzero;display:inline;overflow:visible;visibility:visible;opacity:1;isolation:auto;mix-blend-mode:normal;color-interpolation:sRGB;color-interpolation-filters:linearRGB;solid-color:#000000;solid-opacity:1;fill:#ffffff;fill-opacity:1;fill-rule:nonzero;stroke:#280b0b;stroke-width:0.5;stroke-linecap:butt;stroke-linejoin:miter;stroke-miterlimit:4;stroke-dasharray:none;stroke-dashoffset:0;stroke-opacity:1;color-rendering:auto;image-rendering:auto;shape-rendering:auto;text-rendering:auto;enable-background:accumulate" />
      <rect
         style="color:#000000;clip-rule:nonzero;display:inline;overflow:visible;visibility:visible;opacity:1;isolation:auto;mix-blend-mode:normal;color-interpolation:sRGB;color-interpolation-filters:linearRGB;solid-color:#000000;solid-opacity:1;fill:#ffffff;fill-opacity:1;fill-rule:nonzero;stroke:#280b0b;stroke-width:0.5;stroke-linecap:butt;stroke-linejoin:miter;stroke-miterlimit:4;stroke-dasharray:none;stroke-dashoffset:0;stroke-opacity:1;color-rendering:auto;image-rendering:auto;shape-rendering:auto;text-rendering:auto;enable-background:accumulate"
         id="rect4229"
         width="50"
         height="9.9999933"
         x="400"
         y="181.9561" />
      <rect
         y="171.85457"
         x="400"
         height="9.9999933"
         width="50"
         id="rect4231"
         style="color:#000000;clip-rule:nonzero;display:inline;overflow:visible;visibility:visible;opacity:1;isolation:auto;mix-blend-mode:normal;color-interpolation:sRGB;color-interpolation-filters:linearRGB;solid-color:#000000;solid-opacity:1;fill:#ffffff;fill-opacity:1;fill-rule:nonzero;stroke:#280b0b;stroke-width:0.5;stroke-linecap:butt;stroke-linejoin:miter;stroke-miterlimit:4;stroke-dasharray:none;stroke-dashoffset:0;stroke-opacity:1;color-rendering:auto;image-rendering:auto;shape-rendering:auto;text-rendering:auto;enable-background:accumulate" />
      <rect
         style="color:#000000;clip-rule:nonzero;display:inline;overflow:visible;visibility:visible;opacity:1;isolation:auto;mix-blend-mode:normal;color-interpolation:sRGB;color-interpolation-filters:linearRGB;solid-color:#000000;solid-opacity:1;fill:#ffffff;fill-opacity:1;fill-rule:nonzero;stroke:#280b0b;stroke-width:0.5;stroke-linecap:butt;stroke-linejoin:miter;stroke-miterlimit:4;stroke-dasharray:none;stroke-dashoffset:0;stroke-opacity:1;color-rendering:auto;image-rendering:auto;shape-rendering:auto;text-rendering:auto;enable-background:accumulate"
         id="rect4233"
         width="50"
         height="9.9999933"
         x="400"
         y="161.75304" />
      <rect
         y="153.06522"
         x="400"
         height="9.9999933"
         width="50"
         id="rect4235"
         style="color:#000000;clip-rule:nonzero;display:inline;overflow:visible;visibility:visible;opacity:1;isolation:auto;mix-blend-mode:normal;color-interpolation:sRGB;color-interpolation-filters:linearRGB;solid-color:#000000;solid-opacity:1;fill:#ffffff;fill-opacity:1;fill-rule:nonzero;stroke:#280b0b;stroke-width:0.5;stroke-linecap:butt;stroke-linejoin:miter;stroke-miterlimit:4;stroke-dasharray:none;stroke-dashoffset:0;stroke-opacity:1;color-rendering:auto;image-rendering:auto;shape-rendering:auto;text-rendering:auto;enable-background:accumulate" />
      <rect
         style="color:#000000;clip-rule:nonzero;display:inline;overflow:visible;visibility:visible;opacity:1;isolation:auto;mix-blend-mode:normal;color-interpolation:sRGB;color-interpolation-filters:linearRGB;solid-color:#000000;solid-opacity:1;fill:#ffffff;fill-opacity:1;fill-rule:nonzero;stroke:#280b0b;stroke-width:0.5;stroke-linecap:butt;stroke-linejoin:miter;stroke-miterlimit:4;stroke-dasharray:none;stroke-dashoffset:0;stroke-opacity:1;color-rendering:auto;image-rendering:auto;shape-rendering:auto;text-rendering:auto;enable-background:accumulate"
         id="rect4237"
         width="50"
         height="9.9999933"
         x="400"
         y="143.06522" />
      <rect
         y="132.96368"
         x="400"
         height="9.9999933"
         width="50"
         id="rect4239"
         style="color:#000000;clip-rule:nonzero;display:inline;overflow:visible;visibility:visible;opacity:1;isolation:auto;mix-blend-mode:normal;color-interpolation:sRGB;color-interpolation-filters:linearRGB;solid-color:#000000;solid-opacity:1;fill:#ffffff;fill-opacity:1;fill-rule:nonzero;stroke:#280b0b;stroke-width:0.5;stroke-linecap:butt;stroke-linejoin:miter;stroke-miterlimit:4;stroke-dasharray:none;stroke-dashoffset:0;stroke-opacity:1;color-rendering:auto;image-rendering:auto;shape-rendering:auto;text-rendering:auto;enable-background:accumulate" />
      <rect
         style="color:#000000;clip-rule:nonzero;display:inline;overflow:visible;visibility:visible;opacity:1;isolation:auto;mix-blend-mode:normal;color-interpolation:sRGB;color-interpolation-filters:linearRGB;solid-color:#000000;solid-opacity:1;fill:#ffffff;fill-opacity:1;fill-rule:nonzero;stroke:#280b0b;stroke-width:0.5;stroke-linecap:butt;stroke-linejoin:miter;stroke-miterlimit:4;stroke-dasharray:none;stroke-dashoffset:0;stroke-opacity:1;color-rendering:auto;image-rendering:auto;shape-rendering:auto;text-rendering:auto;enable-background:accumulate"
         id="rect4241"
         width="50"
         height="9.9999933"
         x="400"
         y="122.86216" />
      <rect
         style="color:#000000;clip-rule:nonzero;display:inline;overflow:visible;visibility:visible;opacity:1;isolation:auto;mix-blend-mode:normal;color-interpolation:sRGB;color-interpolation-filters:linearRGB;solid-color:#000000;solid-opacity:1;fill:#ffffff;fill-opacity:1;fill-rule:nonzero;stroke:#280b0b;stroke-width:0.5;stroke-linecap:butt;stroke-linejoin:miter;stroke-miterlimit:4;stroke-dasharray:none;stroke-dashoffset:0;stroke-opacity:1;color-rendering:auto;image-rendering:auto;shape-rendering:auto;text-rendering:auto;enable-background:accumulate"
         id="rect4243"
         width="50"
         height="9.9999933"
         x="400"
         y="112.65913" />
    </g>
    <rect
       style="color:#000000;clip-rule:nonzero;display:inline;overflow:visible;visibility:visible;opacity:1;isolation:auto;mix-blend-mode:normal;color-interpolation:sRGB;color-interpolation-filters:linearRGB;solid-color:#000000;solid-opacity:1;fill:#b3b3b3;fill-opacity:1;fill-rule:nonzero;stroke:#280b0b;stroke-width:0.5;stroke-linecap:butt;stroke-linejoin:miter;stroke-miterlimit:4;stroke-dasharray:none;stroke-dashoffset:0;stroke-opacity:1;color-rendering:auto;image-rendering:auto;shape-rendering:auto;text-rendering:auto;enable-background:accumulate"
       id="rect4245"
       width="50"
       height="100"
       x="400"
       y="392.36221"
       inkscape:export-xdpi="45"
       inkscape:export-ydpi="45" />
    <rect
       style="color:#000000;clip-rule:nonzero;display:inline;overflow:visible;visibility:visible;opacity:1;isolation:auto;mix-blend-mode:normal;color-interpolation:sRGB;color-interpolation-filters:linearRGB;solid-color:#000000;solid-opacity:1;fill:#b3b3b3;fill-opacity:1;fill-rule:nonzero;stroke:#280b0b;stroke-width:0.5;stroke-linecap:butt;stroke-linejoin:miter;stroke-miterlimit:4;stroke-dasharray:none;stroke-dashoffset:0;stroke-opacity:1;color-rendering:auto;image-rendering:auto;shape-rendering:auto;text-rendering:auto;enable-background:accumulate"
       id="rect4247"
       width="220"
       height="180"
       x="400"
       y="492.36221"
       inkscape:export-xdpi="45"
       inkscape:export-ydpi="45" />
    <rect
       style="color:#000000;clip-rule:nonzero;display:inline;overflow:visible;visibility:visible;opacity:1;isolation:auto;mix-blend-mode:normal;color-interpolation:sRGB;color-interpolation-filters:linearRGB;solid-color:#000000;solid-opacity:1;fill:#b3b3b3;fill-opacity:1;fill-rule:nonzero;stroke:#280b0b;stroke-width:0.5;stroke-linecap:butt;stroke-linejoin:miter;stroke-miterlimit:4;stroke-dasharray:none;stroke-dashoffset:0;stroke-opacity:1;color-rendering:auto;image-rendering:auto;shape-rendering:auto;text-rendering:auto;enable-background:accumulate"
       id="rect4249"
       width="110"
       height="100"
       x="290"
       y="392.36221"
       inkscape:export-xdpi="45"
       inkscape:export-ydpi="45" />
    <path
       style="fill:none;fill-rule:evenodd;stroke:#ff0000;stroke-width:1px;stroke-linecap:butt;stroke-linejoin:miter;stroke-opacity:1"
       d="m 570,442.3622 c -1.66667,-0.23809 -3.32941,-0.50546 -5,-0.71428 -0.68457,-0.0856 -1.45234,0 -2.14286,0 -1.66666,0 -3.33333,0 -5,0 -4.7619,0 -9.52381,0 -14.28571,0 -1.90476,0 -3.80952,0 -5.71429,0 -0.23809,0 -0.47619,0 -0.71428,0 -0.2381,0 -0.54593,0.16836 -0.71429,0 -0.16836,-0.16836 0.16836,-0.54593 0,-0.71429 -0.16836,-0.16836 -0.47619,0 -0.71428,0 -1.42858,0 -2.85715,0 -4.28572,0 -0.23809,0 -0.54592,0.16836 -0.71428,0 -0.16836,-0.16836 0.16836,-0.54592 0,-0.71428 -0.0288,-0.0288 -2.59483,0 -2.85715,0 -0.33678,0 -3.53905,0.0324 -3.57143,0 -0.16835,-0.16836 0.16836,-0.54593 0,-0.71429 -0.16835,-0.16836 -0.47619,0 -0.71428,0 -1.19048,0 -2.38095,0 -3.57143,0 -0.23809,0 -0.54593,0.16836 -0.71429,0 -0.16835,-0.16836 0.16836,-0.54593 0,-0.71428 -0.16835,-0.16836 -0.47619,0 -0.71428,0 -0.33679,0 -3.53906,0.0324 -3.57143,0 -0.16836,-0.16836 0.16836,-0.54593 0,-0.71429 -0.22118,-0.22118 -3.35025,0.22118 -3.57143,0 -0.16836,-0.16836 0.16836,-0.54593 0,-0.71429 -0.17188,-0.17188 -2.68526,0.17188 -2.85714,0 -0.16836,-0.16835 0.16836,-0.54592 0,-0.71428 -0.17188,-0.17188 -2.68526,0.17188 -2.85714,0 -0.16836,-0.16836 0.16836,-0.54593 0,-0.71429 -0.17188,-0.17188 -2.68527,0.17188 -2.85715,0 -0.16836,-0.16836 0.16836,-0.54592 0,-0.71428 -0.35714,-0.35715 -1.78571,0.35714 -2.14285,0 -0.16836,-0.16836 0.16836,-0.54593 0,-0.71429 -0.14603,-0.14602 -1.85965,0.14161 -2.14286,0 -0.30117,-0.15058 -0.41312,-0.5637 -0.71429,-0.71428 -0.42591,-0.21296 -1.09185,0.33671 -1.42857,0 -0.16836,-0.16836 0.16836,-0.54593 0,-0.71429 -0.47761,-0.47761 -0.95096,0.47761 -1.42857,0 -0.16836,-0.16836 0.16836,-0.54593 0,-0.71429 -0.33672,-0.33671 -1.09185,0.33672 -1.42857,0 -0.16836,-0.16835 0.16836,-0.54592 0,-0.71428 -0.16836,-0.16836 -0.54593,0.16836 -0.71429,0 -0.16836,-0.16836 0.16836,-0.54593 0,-0.71429 -0.16836,-0.16836 -0.54592,0.16836 -0.71428,0 -0.16836,-0.16836 0.16836,-0.54592 0,-0.71428 -0.16836,-0.16836 -0.54593,0.16836 -0.71429,0 -0.16836,-0.16836 0.16836,-0.54593 0,-0.71429 -0.16836,-0.16836 -0.54593,0.16836 -0.71428,0 -0.16836,-0.16836 0.16835,-0.54593 0,-0.71428 -0.16836,-0.16836 -0.54593,0.16835 -0.71429,0 -0.33672,-0.33672 0.33672,-1.09186 0,-1.42858 -0.16836,-0.16835 -0.54593,0.16836 -0.71429,0 -0.16835,-0.16835 0.16836,-0.54592 0,-0.71428 -0.16835,-0.16836 -0.54592,0.16836 -0.71428,0 -0.16836,-0.16836 0.16836,-0.54593 0,-0.71429 -0.16836,-0.16836 -0.54593,0.16836 -0.71429,0 -0.33671,-0.33671 0.33672,-1.09185 0,-1.42857 -0.16836,-0.16836 -0.54592,0.16836 -0.71428,0 -0.16836,-0.16836 0.16836,-0.54593 0,-0.71428 -0.16836,-0.16836 -0.54593,0.16835 -0.71429,0 -0.33672,-0.33672 0.33672,-1.09186 0,-1.42858 -0.16836,-0.16835 -0.54593,0.16836 -0.71428,0 -0.16836,-0.16835 0.16835,-0.54592 0,-0.71428 -0.16836,-0.16836 -0.54593,0.16836 -0.71429,0 -0.33672,-0.33672 0.33672,-1.09186 0,-1.42857 -0.16836,-0.16836 -0.54593,0.16836 -0.71429,0 -0.47701,-0.47702 0.47702,-0.95156 0,-1.42857 -0.16835,-0.16836 -0.54592,0.16835 -0.71428,0 -0.33672,-0.33672 0.33672,-1.09186 0,-1.42858 -0.16836,-0.16835 -0.54593,0.16836 -0.71429,0 -0.16836,-0.16835 0.10648,-0.50132 0,-0.71428 -0.15058,-0.30117 -0.5637,-0.41312 -0.71428,-0.71429 -0.10648,-0.21296 0.16836,-0.54592 0,-0.71428 -0.16836,-0.16836 -0.54593,0.16836 -0.71429,0 -0.33672,-0.33672 0.33672,-1.09186 0,-1.42857 -0.16836,-0.16836 -0.54593,0.16835 -0.71428,0 -0.33672,-0.33672 0.33671,-1.09186 0,-1.42858 -0.16836,-0.16835 -0.54593,0.16836 -0.71429,0 -0.47702,-0.47701 0.47702,-0.95155 0,-1.42857 -0.16836,-0.16836 -0.54593,0.16836 -0.71429,0 -0.33671,-0.33671 0.33672,-1.09185 0,-1.42857 -0.16835,-0.16836 -0.54592,0.16836 -0.71428,0 -0.33672,-0.33672 0.33672,-1.09185 0,-1.42857 -0.16836,-0.16836 -0.54593,0.16836 -0.71429,0 -0.33671,-0.33672 0.33672,-1.09185 0,-1.42857 -0.16836,-0.16836 -0.54592,0.16836 -0.71428,0 -0.33672,-0.33672 0.33672,-1.09186 0,-1.42857 -0.16836,-0.16836 -0.54593,0.16836 -0.71429,0 -0.16836,-0.16836 0.10648,-0.50133 0,-0.71429 -0.15058,-0.30117 -0.5637,-0.41312 -0.71428,-0.71428 -0.21296,-0.42592 0.33671,-1.09186 0,-1.42858 -0.16836,-0.16835 -0.54593,0.16836 -0.71429,0 -0.35714,-0.35714 0.35714,-1.78571 0,-2.14285 -0.95238,-0.95238 -0.71429,1.19047 -0.71429,-0.71429 0,-0.23809 0,-0.47619 0,-0.71428 0,-0.2381 0.16836,-0.54593 0,-0.71429 -0.16835,-0.16836 -0.54592,0.16836 -0.71428,0 -0.35714,-0.35714 0.35714,-1.78571 0,-2.14286 -0.16836,-0.16836 -0.54593,0.16836 -0.71429,0 -0.33671,-0.33671 0.21296,-1.00265 0,-1.42857 -0.15058,-0.30117 -0.5637,-0.41312 -0.71428,-0.71428 -0.28572,-0.57143 0.28571,-1.57143 0,-2.14286 -0.15059,-0.30117 -0.5637,-0.41312 -0.71429,-0.71429 -0.1416,-0.28321 0.14603,-1.99683 0,-2.14285 -0.16836,-0.16836 -0.54593,0.16835 -0.71428,0 -0.19545,-0.19545 0.19374,-2.46966 0,-2.85715 -0.15059,-0.30117 -0.5637,-0.41311 -0.71429,-0.71428 -0.22447,-0.44895 0.22447,-2.4082 0,-2.85715 -0.15058,-0.30117 -0.5637,-0.41311 -0.71429,-0.71428 -0.12915,-0.25831 0,-3.07462 0,-3.57143 0,-0.2381 0.16836,-0.54593 0,-0.71429 -0.16835,-0.16835 -0.54592,0.16836 -0.71428,0 -0.16836,-0.16835 0,-0.47619 0,-0.71428 0,-0.49682 0.12915,-3.31312 0,-3.57143 -0.15059,-0.30117 -0.5637,-0.41312 -0.71429,-0.71429 -0.0939,-0.18781 0,-2.48362 0,-2.85714 0,-0.37351 0.0939,-2.66933 0,-2.85714 -0.15058,-0.30117 -0.5637,-0.41312 -0.71428,-0.71429 -0.10648,-0.21296 0,-0.47619 0,-0.71428 0,-0.2381 0,-0.47619 0,-0.71429 0,-1.42857 0,-2.85714 0,-4.28571 0,-3.09524 0,-6.19048 0,-9.28572 0,-0.17323 -0.023,-2.11988 0,-2.14285 0.16836,-0.16836 0.54592,0.16835 0.71428,0 0.0288,-0.0288 0,-2.59484 0,-2.85715 0,-2.61905 0,-5.23809 0,-7.85714 0,-0.49681 -0.12915,-3.31312 0,-3.57143 0.15059,-0.30117 0.5637,-0.41312 0.71429,-0.71428 0.10869,-0.21739 0,-1.82118 0,-2.14286 0,-1.66667 0,-3.33334 0,-5 0,-0.2381 0,-0.47619 0,-0.71429 0,-0.23809 -0.16836,-0.54592 0,-0.71428 0.16836,-0.16836 0.54593,0.16836 0.71428,0 0.16836,-0.16836 0,-0.47619 0,-0.71429 0,-1.19048 0,-2.38095 0,-3.57143 0,-4.52381 0,-9.04762 0,-13.57143 0,-1.42857 0,-2.85714 0,-4.28571 0,-0.2381 0,-0.47619 0,-0.71429 0,-0.23809 -0.10647,-0.50132 0,-0.71428 0.15059,-0.30117 0.56371,-0.41312 0.71429,-0.71429 0.10869,-0.21738 0,-1.82117 0,-2.14285 0,-1.90477 0,-3.80953 0,-5.71429 0,-4.76191 0,-9.52381 0,-14.28571 0,-1.42858 0,-2.85715 0,-4.28572 0,-0.23809 0,-0.47619 0,-0.71428 0,-0.2381 -0.10648,-0.50133 0,-0.71429 0.15059,-0.30117 0.5637,-0.41312 0.71429,-0.71429 0.10648,-0.21295 0,-0.47619 0,-0.71428 0,-1.19048 0,-2.38095 0,-3.57143 0,-0.2381 0,-0.47619 0,-0.71429 0,-0.23809 -0.10648,-0.50132 0,-0.71428 0.88264,-1.76529 0.71428,0.24655 0.71428,-1.42857 0,-1.42857 0,-2.85715 0,-4.28572 0,-0.23809 -0.16836,-0.54592 0,-0.71428 0.16836,-0.16836 0.54593,0.16836 0.71429,0 0.16836,-0.16836 0,-0.47619 0,-0.71429 0,-0.23809 0,-0.47619 0,-0.71428 0,-1.90477 0,-3.80953 0,-5.71429 0,-0.2381 -0.16836,-0.54593 0,-0.71429 0.16836,-0.16835 0.54592,0.16836 0.71428,0 0.023,-0.023 0,-1.96962 0,-2.14285 0,-2.38096 0,-4.76191 0,-7.14286 0,-0.2381 0,-0.47619 0,-0.71429 0,-0.23809 -0.16836,-0.54592 0,-0.71428 0.16836,-0.16836 0.54593,0.16836 0.71429,0 0.16836,-0.16836 0,-0.47619 0,-0.71429 0,-0.23809 0,-0.47619 0,-0.71428 0,-3.57143 0,-7.14286 0,-10.71429 0,-0.26231 -0.0287,-2.8284 0,-2.85714 0.16836,-0.16836 0.54593,0.16836 0.71428,0 0.023,-0.023 0,-1.96963 0,-2.14286 0,-4.04762 0,-8.09524 0,-12.14286 0,-1.90476 0,-3.80952 0,-5.71428 0,-0.32169 -0.10869,-1.92548 0,-2.14286 0.15059,-0.30117 0.56371,-0.41312 0.71429,-0.71428 0.0923,-0.18468 0,-3.77943 0,-4.28572 0,-3.33333 0,-6.66667 0,-10 0,-8.80952 0,-17.61905 0,-26.42857 0,-3.09524 0,-6.19048 0,-9.28571 0,-0.2381 0,-0.4762 0,-0.71429 0,-0.2381 0.16836,-0.54593 0,-0.71429 -0.16836,-0.16835 -0.54593,0.16836 -0.71429,0 -0.16835,-0.16835 0,-0.47619 0,-0.71428 0,-1.42857 0,-2.85714 0,-4.28572 0,-0.23809 0.16836,-0.54592 0,-0.71428 -0.16835,-0.16836 -0.54592,0.16836 -0.71428,0 -0.16836,-0.16836 0,-0.47619 0,-0.71429 0,-0.23809 0,-0.47619 0,-0.71428 0,-1.42857 0,-2.85715 0,-4.28572 0,-0.23809 0,-0.47619 0,-0.71428 0,-0.2381 0.10648,-0.50133 0,-0.71429 -0.15059,-0.30117 -0.5637,-0.41312 -0.71429,-0.71428 -0.10869,-0.21739 0,-1.82118 0,-2.14286 0,-1.42857 0,-2.85714 0,-4.28572 0,-0.32168 0.10869,-1.92547 0,-2.14285 -0.15058,-0.30117 -0.5637,-0.41312 -0.71428,-0.71429 -0.10648,-0.21296 0,-0.47619 0,-0.71428 0,-0.2381 0,-0.4762 0,-0.71429 0,-1.42857 0,-2.85714 0,-4.28571 0,-1.90477 0,-3.80953 0,-5.71429 0,-0.2381 0.16836,-0.54593 0,-0.71429 -0.16836,-0.16836 -0.54593,0.16836 -0.71429,0 -0.16836,-0.16836 0,-0.47619 0,-0.71428 0,-0.2381 0,-0.47619 0,-0.71429 0,-1.66666 0,-3.33333 0,-5 0,-0.23809 0.16836,-0.54592 0,-0.71428 -0.16836,-0.16836 -0.54593,0.16836 -0.71428,0 -0.16836,-0.16836 0,-0.47619 0,-0.71429 0,-0.23809 0,-0.47619 0,-0.71428 0,-0.17324 0.023,-2.11989 0,-2.14286 -0.16836,-0.16836 -0.54593,0.16836 -0.71429,0 -0.35714,-0.35714 0.35714,-1.78572 0,-2.14286 -0.33672,-0.33672 -1.09185,0.33672 -1.42857,0 -0.16836,-0.16836 0.16836,-0.54593 0,-0.71428 -0.33672,-0.33672 -1.09185,0.33671 -1.42857,0 -0.16836,-0.16836 0.16836,-0.54593 0,-0.71429 -0.33672,-0.33672 -1.09186,0.33672 -1.42857,0 -0.16836,-0.16836 0.16835,-0.54593 0,-0.71429 -0.16836,-0.16836 -0.54593,0.16836 -0.71429,0 -0.16836,-0.16836 0.16836,-0.54592 0,-0.71428 -0.33672,-0.33672 -1.09185,0.33672 -1.42857,0 -0.16836,-0.16836 0.16836,-0.54593 0,-0.71429 -0.17188,-0.17188 -2.68526,0.17188 -2.85714,0 -0.16836,-0.16836 0.16835,-0.54592 0,-0.71428 -0.17188,-0.17188 -2.68527,0.17188 -2.85715,0 -0.16836,-0.16836 0.16836,-0.54593 0,-0.714289 -0.17188,-0.171879 -2.68526,0.171879 -2.85714,0 -0.16836,-0.168359 0.16836,-0.545927 0,-0.714286 -0.22118,-0.221176 -3.35025,0.221177 -3.57143,0 -0.16836,-0.168359 0.16836,-0.545927 0,-0.714286 -0.16836,-0.168358 -0.47619,0 -0.71428,0 -1.66667,0 -3.33334,0 -5,0 -1.66667,0 -3.33334,0 -5,0 -0.2381,0 -0.54593,-0.168358 -0.71429,0 -0.16836,0.168359 0.16836,0.545927 0,0.714286 -0.47761,0.477612 -0.95096,-0.477612 -1.42857,0 -0.16836,0.168359 0.16836,0.545927 0,0.714286 -0.33672,0.336717 -1.09185,-0.336718 -1.42857,0 -0.16836,0.168359 0.16836,0.545929 0,0.714289 -0.16836,0.16836 -0.54593,-0.16836 -0.71429,0 -0.16836,0.16836 0.16836,0.54592 0,0.71428 -0.16836,0.16836 -0.54593,-0.16836 -0.71428,0 -0.16836,0.16836 0.16835,0.54593 0,0.71429 -0.16836,0.16836 -0.54593,-0.16836 -0.71429,0 -0.16836,0.16836 0.16836,0.54592 0,0.71428 -0.16836,0.16836 -0.54593,-0.16836 -0.71429,0 -0.16835,0.16836 0.10648,0.50133 0,0.71429 -0.15058,0.30117 -0.5637,0.41312 -0.71428,0.71429 -0.10648,0.21295 0.16836,0.54592 0,0.71428 -0.16836,0.16836 -0.54593,-0.16836 -0.71429,0 -0.33671,0.33672 0.33672,1.09185 0,1.42857 -0.16836,0.16836 -0.54592,-0.16836 -0.71428,0 -0.47702,0.47702 0.47702,0.95156 0,1.42857 -0.16836,0.16836 -0.54593,-0.16836 -0.71429,0 -0.35714,0.35715 0.35714,1.78572 0,2.14286 -0.16836,0.16836 -0.54593,-0.16836 -0.71428,0 -0.35715,0.35714 0.35714,1.78572 0,2.14286 -0.16836,0.16836 -0.54593,-0.16836 -0.71429,0 -0.023,0.023 0,1.96962 0,2.14286 0,0.23809 0,0.47619 0,0.71428 0,0.2381 0.16836,0.54593 0,0.71429 -0.16836,0.16836 -0.54593,-0.16836 -0.71429,0 -0.16835,0.16836 0,0.47619 0,0.71428 0,1.19048 0,2.38095 0,3.57143 0,0.2381 0.16836,0.54593 0,0.71429 -0.16835,0.16836 -0.54592,-0.16836 -0.71428,0 -0.0324,0.0324 0,3.23464 0,3.57143 0,0.23809 0.16836,0.54592 0,0.71428 -0.16836,0.16836 -0.54593,-0.16836 -0.71429,0 -0.16836,0.16836 0,0.47619 0,0.71429 0,1.19047 0,2.38095 0,3.57143 0,1.90476 0.2381,-0.2381 -0.71428,0.71428 -0.16836,0.16836 0,0.47619 0,0.71429 0,0.23809 0,0.47619 0,0.71428 0,0.50629 0.0923,4.10104 0,4.28572 -0.15059,0.30117 -0.5637,0.41311 -0.71429,0.71428 -0.10869,0.21738 0,1.82118 0,2.14286 0,1.66667 0,3.33333 0,5 0,1.67513 0.16836,-0.33672 -0.71428,1.42857 -0.0939,0.18782 0,2.48363 0,2.85714 0,0.33679 0.0324,3.53906 0,3.57143 -0.16836,0.16836 -0.54593,-0.16836 -0.71429,0 -0.16836,0.16836 0,0.47619 0,0.71429 0,1.42857 0,2.85714 0,4.28571 0,0.2381 0,0.47619 0,0.71429 0,0.23809 0.16836,0.54593 0,0.71428 -0.16836,0.16836 -0.54593,-0.16835 -0.71429,0 -0.16835,0.16836 0,0.47619 0,0.71429 0,0.23809 0,0.47619 0,0.71429 0,2.38095 0,4.7619 0,7.14285 0,5.95238 0,11.90476 0,17.85715 0,5 0,10 0,15 0,1.42857 0,2.85714 0,4.28571 0,0.32168 -0.10869,1.92548 0,2.14286 0.15059,0.30117 0.56371,0.41311 0.71429,0.71428 0.0939,0.18782 0,2.48363 0,2.85715 0,2.61904 0,5.23809 0,7.85714 0,0.33678 -0.0324,3.53905 0,3.57143 0.16836,0.16836 0.54593,-0.16836 0.71429,0 0.16835,0.16836 0,0.47619 0,0.71428 0,0.2381 0,0.47619 0,0.71429 0,1.90476 0,3.80952 0,5.71428 0,1.66667 0,3.33334 0,5 0,0.32169 -0.10869,1.92548 0,2.14286 0.15058,0.30117 0.5637,0.41312 0.71428,0.71429 0.10869,0.21738 0,1.82117 0,2.14285 0,1.90477 0,3.80953 0,5.71429 0,5 0,10 0,15 0,5 0,10 0,15 0,1.90476 0,3.80952 0,5.71429 0,0.32168 0.10869,1.92547 0,2.14285 -0.15058,0.30117 -0.5637,0.41312 -0.71428,0.71429 -0.12916,0.25831 0,3.07461 0,3.57143 0,0.23809 0,0.47619 0,0.71428 0,0.2381 0.10648,0.50133 0,0.71429 -0.15059,0.30117 -0.5637,0.41311 -0.71429,0.71428 -0.0923,0.18468 0,3.77943 0,4.28572 0,0.23809 0,0.47619 0,0.71428 0,0.2381 0.16836,0.54593 0,0.71429 -0.16836,0.16836 -0.54593,-0.16836 -0.71429,0 -0.0324,0.0324 0,3.23464 0,3.57143 0,0.23809 0,0.47619 0,0.71428 0,0.2381 0.10648,0.50133 0,0.71429 -0.15058,0.30117 -0.5637,0.41312 -0.71428,0.71429 -0.0923,0.18467 0,3.77942 0,4.28571 0,0.23809 0,0.47619 0,0.71429 0,0.23809 0.16836,0.54592 0,0.71428 -0.16836,0.16836 -0.54593,-0.16836 -0.71429,0 -0.16836,0.16836 0,0.47619 0,0.71429 0,1.42857 0,2.85714 0,4.28571 0,1.67513 0.16836,-0.33672 -0.71428,1.42857 -0.0923,0.18468 0,3.77943 0,4.28572 0,0.23809 0,0.47619 0,0.71428 0,0.2381 0.16836,0.54593 0,0.71429 -0.16836,0.16836 -0.54593,-0.16836 -0.71429,0 -0.16836,0.16836 0,0.47619 0,0.71428 0,1.42858 0,2.85715 0,4.28572 0,0.23809 0.16836,0.54593 0,0.71428 -0.16836,0.16836 -0.54593,-0.16835 -0.71428,0 -0.16836,0.16836 0,0.47619 0,0.71429 0,1.42857 0,2.85714 0,4.28571 0,0.2381 0.16835,0.54593 0,0.71429 -0.16836,0.16836 -0.54593,-0.16836 -0.71429,0 -0.16836,0.16836 0,0.47619 0,0.71429 0,1.42857 0,2.85714 0,4.28571 0,0.23809 0.16836,0.54593 0,0.71429 -0.16836,0.16835 -0.54593,-0.16836 -0.71429,0 -0.16835,0.16835 0,0.47619 0,0.71428 0,0.50629 0.0923,4.10104 0,4.28572 -0.15058,0.30116 -0.5637,0.41311 -0.71428,0.71428 -0.0923,0.18468 0,3.77943 0,4.28572 0,0.23809 0,0.47619 0,0.71428 0,0.2381 0.16836,0.54593 0,0.71429 -0.16836,0.16836 -0.54593,-0.16836 -0.71429,0 -0.16836,0.16836 0,0.47619 0,0.71428 0,0.2381 0,0.47619 0,0.71429 0,1.42857 0,2.85714 0,4.28571 0,0.2381 0.16836,0.54593 0,0.71429 -0.16836,0.16836 -0.54592,-0.16836 -0.71428,0 -0.16836,0.16836 0,0.47619 0,0.71428 0,1.19048 0,2.38096 0,3.57143 0,0.2381 0.16836,0.54593 0,0.71429 -0.16836,0.16836 -0.54593,-0.16836 -0.71429,0 -0.17188,0.17188 0.17188,2.68526 0,2.85714 -0.16836,0.16836 -0.54593,-0.16836 -0.71428,0 -0.35715,0.35714 0.35714,1.78572 0,2.14286 -0.16836,0.16836 -0.54593,-0.16836 -0.71429,0 -0.33672,0.33672 0.33672,1.09185 0,1.42857 -0.16836,0.16836 -0.54593,-0.16836 -0.71429,0 -0.16835,0.16836 0.16836,0.54593 0,0.71429 -0.16835,0.16835 -0.54592,-0.16836 -0.71428,0 -0.16836,0.16835 0.16836,0.54592 0,0.71428 -0.47761,0.47761 -0.95096,-0.47761 -1.42857,0 -0.16836,0.16836 0.16836,0.54593 0,0.71429 -0.33672,0.33671 -1.09186,-0.33672 -1.42857,0 -0.16836,0.16836 0.16835,0.54592 0,0.71428 -0.47762,0.47761 -0.95096,-0.47761 -1.42858,0 -0.16835,0.16836 0.16836,0.54593 0,0.71429 -0.35714,0.35714 -1.78571,-0.35714 -2.14285,0 -0.16836,0.16836 0.16836,0.54593 0,0.71428 -0.17188,0.17188 -2.68527,-0.17188 -2.85715,0 -0.16835,0.16836 0.16836,0.54593 0,0.71429 -0.14602,0.14603 -1.85964,-0.1416 -2.14285,0 -0.30117,0.15058 -0.41312,0.5637 -0.71429,0.71429 -0.38749,0.19374 -2.6617,-0.19545 -2.85714,0 -0.16836,0.16835 0.16836,0.54592 0,0.71428 -0.25073,0.25073 -3.07805,-0.24669 -3.57143,0 -0.30117,0.15059 -0.41312,0.5637 -0.71429,0.71429 -0.45062,0.22531 -3.1208,-0.22531 -3.57142,0 -0.30117,0.15058 -0.41312,0.5637 -0.71429,0.71428 -0.18468,0.0923 -3.77943,0 -4.28571,0 -0.2381,0 -0.54593,-0.16836 -0.71429,0 -0.16836,0.16836 0.16836,0.54593 0,0.71429 -0.16836,0.16836 -0.47619,0 -0.71429,0 -0.23809,0 -0.47619,0 -0.71428,0 -1.42857,0 -2.85714,0 -4.28572,0 -0.23809,0 -0.54592,-0.16836 -0.71428,0 -0.16836,0.16836 0.16836,0.54593 0,0.71428 -0.0287,0.0288 -2.59483,0 -2.85714,0 -0.26232,0 -2.8284,-0.0287 -2.85715,0 -0.16836,0.16836 0.16836,0.54593 0,0.71429 -0.0324,0.0324 -3.23464,0 -3.57143,0 -0.23809,0 -0.54592,-0.16836 -0.71428,0 -0.16836,0.16836 0.16836,0.54593 0,0.71429 -0.16836,0.16835 -0.47619,0 -0.71429,0 -0.23809,0 -0.47619,0 -0.71428,0 -0.26231,0 -2.8284,-0.0288 -2.85715,0 -0.16835,0.16835 0.16836,0.54592 0,0.71428 -0.16835,0.16836 -0.47619,0 -0.71428,0 -1.42857,0 -2.85714,0 -4.28572,0 -0.23809,0 -0.54592,-0.16836 -0.71428,0 -0.16836,0.16836 0.16836,0.54593 0,0.71429 -0.16836,0.16836 -0.47619,0 -0.71429,0 -0.23809,0 -0.47619,0 -0.71428,0 -1.90476,0 -3.80953,0 -5.71429,0 -0.33678,0 -3.53905,-0.0324 -3.57143,0 -0.16836,0.16836 0.16836,0.54592 0,0.71428 -0.16836,0.16836 -0.47619,0 -0.71428,0 -0.2381,0 -0.47619,0 -0.71429,0 -2.38095,0 -4.7619,0 -7.14286,0 -3.33333,0 -6.66666,0 -10,0 -0.23809,0 -0.47619,0 -0.71428,0 -0.2381,0 -0.54593,0.16836 -0.71429,0 -0.16836,-0.16836 0.16836,-0.54592 0,-0.71428 -0.16836,-0.16836 -0.47619,0 -0.71428,0 -0.2381,0 -0.47619,0 -0.71429,0 -0.50629,0 -4.10103,0.0923 -4.28571,0 -0.30117,-0.15059 -0.41312,-0.5637 -0.71429,-0.71429 -0.18468,-0.0923 -3.77943,0 -4.28571,0 -0.17324,0 -2.11989,0.023 -2.14286,0 -0.16836,-0.16836 0.16836,-0.54593 0,-0.71428 -0.16836,-0.16836 -0.47619,0 -0.71429,0 -0.50628,0 -4.10103,0.0923 -4.28571,0 -0.30117,-0.15059 -0.41312,-0.56371 -0.71429,-0.71429 -0.42591,-0.21296 -1.09185,0.33672 -1.42857,0 -0.16836,-0.16836 0.16836,-0.54593 0,-0.71429 -0.33671,-0.33671 -1.09185,0.33672 -1.42857,0 -0.16836,-0.16835 0.16836,-0.54592 0,-0.71428 -0.16836,-0.16836 -0.54593,0.16836 -0.71428,0 -0.16836,-0.16836 0.16835,-0.54593 0,-0.71429 -0.33672,-0.33671 -1.09186,0.33672 -1.42858,0 -0.16835,-0.16836 0.10648,-0.50132 0,-0.71428 -0.30116,-0.60234 -1.1274,-0.82624 -1.42857,-1.42857 -0.10648,-0.21296 0.16836,-0.54593 0,-0.71429 -0.16836,-0.16836 -0.54592,0.16836 -0.71428,0 -0.16836,-0.16836 0.16836,-0.54593 0,-0.71429 -0.16836,-0.16835 -0.54593,0.16836 -0.71429,0 -0.16836,-0.16835 0.16836,-0.54592 0,-0.71428 -0.16836,-0.16836 -0.54593,0.16836 -0.71428,0 -0.16836,-0.16836 0.16835,-0.54593 0,-0.71429 -0.33672,-0.33671 -1.09186,0.33672 -1.42858,0 -0.16835,-0.16836 0.16836,-0.54592 0,-0.71428 -0.16835,-0.16836 -0.54592,0.16836 -0.71428,0 -0.16836,-0.16836 0.16836,-0.54593 0,-0.71429 -0.16836,-0.16836 -0.54593,0.16836 -0.71429,0 -0.16836,-0.16836 0.16836,-0.54593 0,-0.71428 -0.16836,-0.16836 -0.54592,0.16835 -0.71428,0 -0.16836,-0.16836 0.16836,-0.54593 0,-0.71429 -0.16836,-0.16836 -0.54593,0.16836 -0.71429,0 -0.33672,-0.33672 0.33672,-1.09185 0,-1.42857 -0.16836,-0.16836 -0.54593,0.16836 -0.71428,0 -0.16836,-0.16836 0.16835,-0.54593 0,-0.71429 -0.16836,-0.16836 -0.47619,0 -0.71429,0 0,-0.23809 0.16836,-0.54592 0,-0.71428 -0.16836,-0.16836 -0.54593,0.16836 -0.71429,0 -0.16835,-0.16836 0.16836,-0.54593 0,-0.71429 -0.16835,-0.16836 -0.54592,0.16836 -0.71428,0 -0.16836,-0.16836 0.16836,-0.54593 0,-0.71428 -0.16836,-0.16836 -0.54593,0.16835 -0.71429,0 -0.16836,-0.16836 0.16836,-0.54593 0,-0.71429 -0.16836,-0.16836 -0.54592,0.16836 -0.71428,0 -0.16836,-0.16836 0.16836,-0.54593 0,-0.71429 -0.16836,-0.16835 -0.54593,0.16836 -0.71429,0 -0.33672,-0.33671 0.33672,-1.09185 0,-1.42857 -0.16836,-0.16836 -0.54593,0.16836 -0.71428,0 -0.16836,-0.16836 0.16835,-0.54592 0,-0.71428 -0.16836,-0.16836 -0.54593,0.16836 -0.71429,0 -0.16836,-0.16836 0.10648,-0.50133 0,-0.71429 -0.15058,-0.30117 -0.5637,-0.41312 -0.71429,-0.71428 -0.10647,-0.21296 0.16836,-0.54593 0,-0.71429 -0.16835,-0.16836 -0.54592,0.16836 -0.71428,0 -0.16836,-0.16836 0.10648,-0.50133 0,-0.71429 -0.15059,-0.30117 -0.5637,-0.41311 -0.71429,-0.71428 -0.10648,-0.21296 0.16836,-0.54593 0,-0.71429 -0.16836,-0.16836 -0.54592,0.16836 -0.71428,0 -0.33672,-0.33671 0.33671,-1.09185 0,-1.42857 -0.16836,-0.16836 -0.54593,0.16836 -0.71429,0 -0.16836,-0.16836 0.16836,-0.54593 0,-0.71428 -0.16836,-0.16836 -0.54593,0.16835 -0.71428,0 -0.33672,-0.33672 0.33671,-1.09186 0,-1.42858 -0.16836,-0.16835 -0.54593,0.16836 -0.71429,0 -0.33672,-0.33671 0.33672,-1.09185 0,-1.42857 -0.16836,-0.16836 -0.54593,0.16836 -0.71429,0 -0.33671,-0.33671 0.33672,-1.09185 0,-1.42857 -0.16835,-0.16836 -0.54592,0.16836 -0.71428,0 -0.47702,-0.47702 0.47702,-0.95155 0,-1.42857 -0.16836,-0.16836 -0.54593,0.16836 -0.71429,0 -0.33671,-0.33672 0.33672,-1.09185 0,-1.42857 -0.16836,-0.16836 -0.54592,0.16836 -0.71428,0 -0.35715,-0.35714 0.35714,-1.78572 0,-2.14286 -0.16836,-0.16836 -0.54593,0.16836 -0.71429,0 -0.33672,-0.33672 0.33672,-1.09185 0,-1.42857 -0.16836,-0.16836 -0.54593,0.16836 -0.71428,0 -0.17188,-0.17188 0.17188,-2.68526 0,-2.85714 -0.16836,-0.16836 -0.54593,0.16836 -0.71429,0 -0.35714,-0.35715 0.35714,-1.78572 0,-2.14286 -0.16836,-0.16836 -0.54593,0.16836 -0.71429,0 -0.16835,-0.16836 0,-0.47619 0,-0.71429 0,-0.23809 0,-0.47619 0,-0.71428 0,-1.90476 0,-3.80953 0,-5.71429 0,-0.23809 0,-0.47619 0,-0.71428 0,-0.2381 0.16836,-0.54593 0,-0.71429 -0.16835,-0.16836 -0.54592,0.16836 -0.71428,0 -0.16836,-0.16836 0,-0.47619 0,-0.71428 0,-0.2381 0,-0.4762 0,-0.71429 0,-2.85714 0,-5.71429 0,-8.57143 0,-0.26231 0.0287,-2.8284 0,-2.85714 -0.16836,-0.16836 -0.54593,0.16836 -0.71429,0 -0.25072,-0.25073 0.24669,-3.07805 0,-3.57143 -0.15058,-0.30117 -0.5637,-0.41312 -0.71428,-0.71429 -0.14161,-0.2832 0.14602,-1.99683 0,-2.14285 -0.16836,-0.16836 -0.54593,0.16836 -0.71429,0 -0.17188,-0.17188 0.17188,-2.68527 0,-2.85715 -0.16836,-0.16835 -0.54593,0.16836 -0.71428,0 -0.33672,-0.33671 0.33671,-1.09185 0,-1.42857 -0.16836,-0.16836 -0.54593,0.16836 -0.71429,0 -0.33672,-0.33672 0.33672,-1.09185 0,-1.42857 -0.16836,-0.16836 -0.54593,0.16836 -0.71429,0 -0.16835,-0.16836 0.16836,-0.54593 0,-0.71428 -0.16835,-0.16836 -0.54592,0.16835 -0.71428,0 -1.47788,-1.47789 2.2584,0.0578 -0.71429,-1.42858 -0.21296,-0.10648 -0.54592,0.16836 -0.71428,0 -0.16836,-0.16835 0.16836,-0.54592 0,-0.71428 -0.33672,-0.33672 -1.00266,0.21296 -1.42857,0 -0.30117,-0.15059 -0.41312,-0.5637 -0.71429,-0.71429 -0.49338,-0.24669 -3.3207,0.25073 -3.57143,0 -0.16836,-0.16836 0.16836,-0.54592 0,-0.71428 -0.19544,-0.19545 -2.46965,0.19374 -2.85714,0 -0.30117,-0.15059 -0.41312,-0.5637 -0.71429,-0.71429 -0.44894,-0.22447 -2.4082,0.22447 -2.85714,0 -0.30117,-0.15058 -0.41312,-0.5637 -0.71429,-0.71428 -0.57142,-0.28572 -1.57142,0.28571 -2.14285,0 -0.30117,-0.15059 -0.41312,-0.56371 -0.71429,-0.71429 -0.57143,-0.28571 -1.57143,0.28571 -2.14286,0 -0.30116,-0.15059 -0.41311,-0.5637 -0.71428,-0.71429 -0.42592,-0.21295 -1.00265,0.21296 -1.42857,0 -0.30117,-0.15058 -0.41312,-0.5637 -0.71429,-0.71428 -0.25552,-0.12776 -2.03252,0.22067 -2.14286,0 -0.21295,-0.42592 0.33672,-1.09186 0,-1.42857 -0.33671,-0.33672 -0.95238,0 -1.42857,0 -0.47619,0 -0.95238,0 -1.42857,0 -0.23809,0 -0.6078,0.21296 -0.71428,0 -0.21296,-0.42592 0,-0.95238 0,-1.42857 0,-0.2381 0.16835,-0.54593 0,-0.71429 -0.0714,-0.0714 -2.07143,-0.0714 -2.14286,0 -0.16836,0.16836 0.16836,0.54593 0,0.71429 -0.35714,0.35714 -1.78572,-0.35715 -2.14286,0 -0.16836,0.16835 0.16836,0.54592 0,0.71428 -0.33672,0.33672 -1.09185,-0.33672 -1.42857,0 -0.16836,0.16836 0.16836,0.54593 0,0.71429 -0.33672,0.33671 -1.00265,-0.21296 -1.42857,0 -0.30117,0.15058 -0.41312,0.5637 -0.71429,0.71428 -0.42591,0.21296 -1.09185,-0.33672 -1.42857,0 -0.95238,0.95238 1.19048,0.71429 -0.71428,0.71429 -7.85715,0 -15.71429,0 -23.57143,0 -0.33679,0 -3.53906,-0.0324 -3.57143,0 -0.16836,0.16836 0.16836,0.54593 0,0.71428 -0.16836,0.16836 -0.47619,0 -0.71429,0 -0.23809,0 -0.47619,0 -0.71428,0 -1.90476,0 -3.80953,0 -5.71429,0 -0.23809,0 -0.54593,-0.16835 -0.71428,0 -0.16836,0.16836 0.16835,0.54593 0,0.71429 -0.16836,0.16836 -0.47619,0 -0.71429,0 -0.47619,0 -0.95238,0 -1.42857,0 -5,0 -10,0 -15,0 -3.80953,0 -7.61905,0 -11.42857,0 -0.17324,0 -2.11989,0.023 -2.14286,0 -0.16836,-0.16836 0.16836,-0.54593 0,-0.71429 -0.17188,-0.17188 -2.68526,0.17188 -2.85714,0 -0.16836,-0.16835 0.16836,-0.54592 0,-0.71428 -0.22118,-0.22118 -3.35025,0.22117 -3.57143,0 -0.16836,-0.16836 0.16836,-0.54593 0,-0.71429 -0.17188,-0.17188 -2.68526,0.17188 -2.85714,0 -0.16836,-0.16836 0.16835,-0.54592 0,-0.71428 -0.17188,-0.17188 -2.68527,0.17188 -2.85715,0 -0.16836,-0.16836 0.16836,-0.54593 0,-0.71429 -0.14602,-0.14602 -1.85965,0.14161 -2.14285,0 -0.30117,-0.15058 -0.41312,-0.5637 -0.71429,-0.71428 -0.28321,-0.14161 -1.99683,0.14602 -2.14286,0 -0.16836,-0.16836 0.16836,-0.54593 0,-0.71429 -0.35714,-0.35714 -1.78571,0.35714 -2.14285,0 -0.16836,-0.16836 0.16835,-0.54593 0,-0.71429 -0.33672,-0.33671 -1.09186,0.33672 -1.42858,0 -0.16835,-0.16835 0.16836,-0.54592 0,-0.71428 -0.33671,-0.33672 -1.09185,0.33672 -1.42857,0 -0.33671,-0.33672 0.33672,-1.09186 0,-1.42857 -0.16836,-0.16836 -0.54592,0.16836 -0.71428,0 -0.16836,-0.16836 0.16836,-0.54593 0,-0.71429 -0.16836,-0.16836 -0.54593,0.16836 -0.71429,0 -0.35714,-0.35714 0.35714,-1.78571 0,-2.14286 -0.16836,-0.16835 -0.54593,0.16836 -0.71428,0 -0.33672,-0.33671 0.21295,-1.00265 0,-1.42857 -0.15059,-0.30117 -0.56371,-0.41311 -0.71429,-0.71428 -0.19375,-0.38749 0.19544,-2.6617 0,-2.85715 -0.16836,-0.16835 -0.54593,0.16836 -0.71429,0 -0.16835,-0.16835 0,-0.47619 0,-0.71428 0,-1.42857 0,-2.85714 0,-4.28572 0,-0.23809 0.16836,-0.54592 0,-0.71428 -0.16835,-0.16836 -0.54592,0.16836 -0.71428,0 -0.16836,-0.16836 0,-0.47619 0,-0.71429 0,-1.42857 0,-2.85714 0,-4.28571 0,-1.66667 0,-3.33334 0,-5 0,-0.2381 -0.16836,-0.54593 0,-0.71429 0.16836,-0.16836 0.54593,0.16836 0.71428,0 0.35715,-0.35714 -0.35714,-1.78571 0,-2.14285 0.16836,-0.16836 0.54593,0.16835 0.71429,0 0.33672,-0.33672 -0.33672,-1.09186 0,-1.42858 0.16836,-0.16835 0.54593,0.16836 0.71429,0 0.33671,-0.33671 -0.33672,-1.09185 0,-1.42857 0.16835,-0.16836 0.54592,0.16836 0.71428,0 0.33672,-0.33672 -0.33672,-1.09185 0,-1.42857 0.16836,-0.16836 0.54593,0.16836 0.71429,0 0.16836,-0.16836 -0.16836,-0.54593 0,-0.71428 0.16836,-0.16836 0.54592,0.16835 0.71428,0 0.16836,-0.16836 -0.16836,-0.54593 0,-0.71429 0.16836,-0.16836 0.54593,0.16836 0.71429,0 0.16836,-0.16836 -0.16836,-0.54593 0,-0.71429 0.16836,-0.16835 0.54593,0.16836 0.71428,0 0.16836,-0.16835 -0.16835,-0.54592 0,-0.71428 0.16836,-0.16836 0.54593,0.16836 0.71429,0 0.16836,-0.16836 -0.16836,-0.54593 0,-0.71429 0.16836,-0.16836 0.54593,0.16836 0.71429,0 0.16835,-0.16836 -0.16836,-0.54592 0,-0.71428 0.16835,-0.16836 0.54592,0.16836 0.71428,0 0.16836,-0.16836 -0.16836,-0.54593 0,-0.71429 0.16836,-0.16836 0.54593,0.16836 0.71429,0 0.16836,-0.16836 -0.16836,-0.54593 0,-0.71428 0.16836,-0.16836 0.54592,0.16835 0.71428,0 0.16836,-0.16836 -0.16836,-0.54593 0,-0.71429 0.16836,-0.16836 0.54593,0.16836 0.71429,0 0.16836,-0.16836 -0.16836,-0.54593 0,-0.71429 0.16836,-0.16835 0.54593,0.16836 0.71428,0 0.16836,-0.16835 -0.16835,-0.54592 0,-0.71428 0.16836,-0.16836 0.54593,0.16836 0.71429,0 0.16836,-0.16836 -0.16836,-0.54593 0,-0.71429 0.16836,-0.16836 0.54593,0.16836 0.71429,0 0.16835,-0.16836 -0.16836,-0.54592 0,-0.71428 0.16835,-0.16836 0.54592,0.16836 0.71428,0 0.16836,-0.16836 -0.16836,-0.54593 0,-0.71429 0.16836,-0.16836 0.54593,0.16836 0.71429,0 0.16836,-0.16836 -0.16836,-0.54593 0,-0.71428 0.16836,-0.16836 0.54592,0.16835 0.71428,0 0.16836,-0.16836 -0.16836,-0.54593 0,-0.71429 0.16836,-0.16836 0.54593,0.16836 0.71429,0 0.16836,-0.16836 -0.16836,-0.54593 0,-0.71429 0.16836,-0.16835 0.54593,0.16836 0.71428,0 0.16836,-0.16835 -0.16835,-0.54592 0,-0.71428 0.16836,-0.16836 0.54593,0.16836 0.71429,0 0.16836,-0.16836 -0.16836,-0.54593 0,-0.71429 0.16836,-0.16836 0.54593,0.16836 0.71429,0 0.16835,-0.16836 -0.16836,-0.54592 0,-0.71428 0.16835,-0.16836 0.50132,0.10648 0.71428,0 0.30117,-0.15059 0.41312,-0.5637 0.71429,-0.71429 0.21296,-0.10648 0.54592,0.16836 0.71428,0 0.16836,-0.16836 -0.16836,-0.54593 0,-0.71428 0.16836,-0.16836 0.50133,0.10647 0.71429,0 0.30117,-0.15059 0.41312,-0.56371 0.71428,-0.71429 0.21296,-0.10648 0.54593,0.16836 0.71429,0 0.16836,-0.16836 -0.16836,-0.54593 0,-0.71429 0.16836,-0.16835 0.50133,0.10648 0.71429,0 0.30117,-0.15058 0.41311,-0.5637 0.71428,-0.71428 0.21296,-0.10648 0.50133,0.10648 0.71429,0 0.30117,-0.15059 0.41311,-0.5637 0.71428,-0.71429 0.21296,-0.10648 0.54593,0.16836 0.71429,0 0.16836,-0.16836 -0.16836,-0.54592 0,-0.71428 0.16836,-0.16836 0.50133,0.10648 0.71428,0 0.30117,-0.15059 0.41312,-0.5637 0.71429,-0.71429 0.21296,-0.10648 0.54593,0.16836 0.71429,0 0.16835,-0.16836 -0.16836,-0.54593 0,-0.71428 0.16835,-0.16836 0.50132,0.10647 0.71428,0 0.30117,-0.15059 0.41312,-0.56371 0.71429,-0.71429 0.21296,-0.10648 0.54592,0.16836 0.71428,0 0.16836,-0.16836 -0.16836,-0.54593 0,-0.71429 0.16836,-0.16835 0.54593,0.16836 0.71429,0 0.16836,-0.16835 -0.16836,-0.54592 0,-0.71428 0.16836,-0.16836 0.54593,0.16836 0.71428,0 0.16836,-0.16836 -0.16835,-0.54593 0,-0.71429 0.33672,-0.33672 1.09186,0.33672 1.42858,0 0.16835,-0.16836 -0.16836,-0.54592 0,-0.71428 0.16835,-0.16836 0.54592,0.16836 0.71428,0 0.16836,-0.16836 -0.16836,-0.54593 0,-0.71429 0.16836,-0.16836 0.54593,0.16836 0.71429,0 0.16836,-0.16836 -0.16836,-0.54593 0,-0.71428 0.16836,-0.16836 0.54592,0.16835 0.71428,0 0.16836,-0.16836 -0.16836,-0.54593 0,-0.71429 0.16836,-0.16836 0.54593,0.16836 0.71429,0 0.16836,-0.16836 -0.16836,-0.54593 0,-0.71429 0.16836,-0.16835 0.54593,0.16836 0.71428,0 0.16836,-0.16835 -0.16835,-0.54592 0,-0.71428 1.47789,-1.47788 -0.0578,2.2584 1.42858,-0.71429 0.10648,-0.21296 -0.16836,-0.54592 0,-0.71428 1.47788,-1.47789 -0.0578,2.2584 1.42857,-0.71429 0.10648,-0.21296 -0.16836,-0.54593 0,-0.71428 0.16836,-0.16836 0.50132,0.10647 0.71428,0 0.90709,-0.45355 0.52149,-0.97503 1.42857,-1.42858 0.21296,-0.10648 0.54593,0.16836 0.71429,0 0.16836,-0.16835 -0.16836,-0.54592 0,-0.71428 0.16836,-0.16836 0.54593,0.16836 0.71429,0 0,-1.90476 -0.2381,0.23809 0.71428,-0.71429 0.16836,-0.16836 -0.16836,-0.54592 0,-0.71428 0.16836,-0.16836 0.50133,0.10648 0.71429,0 0.30117,-0.15059 0.41311,-0.5637 0.71428,-0.71429 0.21296,-0.10648 0.54593,0.16836 0.71429,0 0.16836,-0.16836 -0.16836,-0.54593 0,-0.71428 0.16836,-0.16836 0.50133,0.10647 0.71428,0 0.30117,-0.15059 0.41312,-0.56371 0.71429,-0.71429 0.21296,-0.10648 0.54593,0.16836 0.71429,0 0.16835,-0.16836 -0.16836,-0.54593 0,-0.71429 0.16835,-0.16835 0.54592,0.16836 0.71428,0 0.16836,-0.16835 -0.16836,-0.54592 0,-0.71428 0.33672,-0.33672 1.09186,0.33672 1.42857,0 0.16836,-0.16836 -0.16836,-0.54593 0,-0.71429 0.16836,-0.16836 0.54593,0.16836 0.71429,0 0.16836,-0.16836 -0.16836,-0.54592 0,-0.71428 0.33672,-0.33672 1.09185,0.33671 1.42857,0 0.16836,-0.16836 -0.16836,-0.54593 0,-0.71429 0.16836,-0.16836 0.54593,0.16836 0.71429,0 0.16835,-0.16836 -0.16836,-0.54593 0,-0.71428 0.16835,-0.16836 0.50132,0.10647 0.71428,0 0.30117,-0.15059 0.41312,-0.56371 0.71429,-0.71429 0.21296,-0.10648 0.54592,0.16836 0.71428,0 0.16836,-0.16836 -0.16836,-0.54593 0,-0.71429 0.33672,-0.33671 1.09186,0.33672 1.42857,0 0.16836,-0.16835 -0.16835,-0.54592 0,-0.71428 0.33672,-0.33672 1.09186,0.33672 1.42858,0 0.16835,-0.16836 -0.16836,-0.54593 0,-0.71429 0.16835,-0.16836 0.50132,0.10648 0.71428,0 0.30117,-0.15058 0.41312,-0.5637 0.71429,-0.71428 0.42592,-0.21296 1.09185,0.33671 1.42857,0 0.16836,-0.16836 -0.16836,-0.54593 0,-0.71429 0.33672,-0.33672 1.09185,0.33672 1.42857,0 0.16836,-0.16836 -0.16836,-0.54593 0,-0.71428 0.33672,-0.33672 1.09185,0.33671 1.42857,0 0.16836,-0.16836 -0.16836,-0.54593 0,-0.71429 0.33672,-0.33672 1.00266,0.21296 1.42857,0 0.30117,-0.15059 0.41312,-0.5637 0.71429,-0.71429 0.42592,-0.21296 1.09185,0.33672 1.42857,0 0.16836,-0.16835 -0.16836,-0.54592 0,-0.71428 0.35714,-0.35714 1.78571,0.35714 2.14286,0 0.16836,-0.16836 -0.16836,-0.54593 0,-0.71429 0.35714,-0.35714 1.78571,0.35715 2.14285,0 0.16836,-0.16836 -0.16835,-0.54592 0,-0.71428 0.35715,-0.35715 1.78572,0.35714 2.14286,0 0.16836,-0.16836 -0.16836,-0.54593 0,-0.71429 0.17188,-0.17188 2.68527,0.17188 2.85714,0 0.16836,-0.16836 -0.16835,-0.54593 0,-0.71428 0.16836,-0.16836 0.47619,0 0.71429,0 1.19048,0 2.38095,0 3.57143,0 0.23809,0 0.54593,0.16835 0.71428,0 0.16836,-0.16836 -0.16835,-0.54593 0,-0.71429 0.0324,-0.0324 3.23465,0 3.57143,0 0.33679,0 3.53906,0.0324 3.57143,0 0.16836,-0.16836 -0.16836,-0.54593 0,-0.71429 0.16836,-0.16835 0.47619,0 0.71429,0 0.23809,0 0.47619,0 0.71428,0 3.33334,0 6.66667,0 10,0 7.14286,0 14.28572,0 21.42857,0 0.33679,0 3.53906,-0.0324 3.57143,0 0.16836,0.16836 -0.16836,0.54593 0,0.71429 0.16836,0.16836 0.47619,0 0.71429,0 0.23809,0 0.47619,0 0.71428,0 1.90477,0 3.80953,0 5.71429,0 0.17323,0 2.11989,-0.023 2.14286,0 0.16836,0.16836 -0.16836,0.54593 0,0.71429 0.0287,0.0287 2.59483,0 2.85714,0 1.90476,0 3.80952,0 5.71429,0 0.23809,0 0.54592,0.16835 0.71428,0 0.16836,-0.16836 -0.16836,-0.54593 0,-0.71429 0.35714,-0.35714 1.78572,0.35714 2.14286,0 0.16836,-0.16836 -0.16836,-0.54593 0,-0.71429 0.47761,-0.47761 0.95096,0.47762 1.42857,0 0.16836,-0.16835 -0.16836,-0.54592 0,-0.71428 0.33672,-0.33672 1.09185,0.33672 1.42857,0 0.16836,-0.16836 -0.16836,-0.54593 0,-0.71429 0.47761,-0.47761 0.95096,0.47761 1.42857,0 0.16836,-0.16836 -0.16836,-0.54592 0,-0.71428 0.33672,-0.33672 1.09186,0.33671 1.42857,0 0.16836,-0.16836 -0.16835,-0.54593 0,-0.71429 0.14603,-0.14603 1.85965,0.14161 2.14286,0 0.30117,-0.15058 0.41312,-0.5637 0.71429,-0.71428 0.28321,-0.14161 1.99683,0.14602 2.14285,0 0.16836,-0.16836 -0.16835,-0.54593 0,-0.71429 0.35715,-0.35714 1.78572,0.35714 2.14286,0 0.16836,-0.16836 -0.16836,-0.54593 0,-0.71429 0.33672,-0.33671 1.09186,0.33672 1.42857,0 0.16836,-0.16835 0,-0.47619 0,-0.71428 0.2381,0 0.54593,0.16836 0.71429,0 0.16836,-0.16836 -0.16836,-0.54593 0,-0.71429 0.33672,-0.33672 1.09185,0.33672 1.42857,0 0.16836,-0.16836 -0.16836,-0.54592 0,-0.71428 0.16836,-0.16836 0.54593,0.16836 0.71429,0 0.16835,-0.16836 -0.16836,-0.54593 0,-0.71429 0.16835,-0.16836 0.54592,0.16836 0.71428,0 0.16836,-0.16836 -0.16836,-0.54593 0,-0.71428 0.16836,-0.16836 0.54593,0.16835 0.71429,0 0.16836,-0.16836 -0.16836,-0.54593 0,-0.71429 0.16836,-0.16836 0.54592,0.16836 0.71428,0 0.16836,-0.16836 -0.16836,-0.54593 0,-0.71429 0.16836,-0.16835 0.54593,0.16836 0.71429,0 0.16836,-0.16835 -0.16836,-0.54592 0,-0.71428 0.16836,-0.16836 0.54593,0.16836 0.71428,0 0.16836,-0.16836 -0.16835,-0.54593 0,-0.71429 0.16836,-0.16836 0.54593,0.16836 0.71429,0 0.16836,-0.16836 -0.10648,-0.50132 0,-0.71428 0.15058,-0.30117 0.5637,-0.41312 0.71429,-0.71429 0.10648,-0.21296 -0.16836,-0.54593 0,-0.71428 0.16835,-0.16836 0.54592,0.16835 0.71428,0 0.16836,-0.16836 -0.16836,-0.54593 0,-0.71429 0.16836,-0.16836 0.54593,0.16836 0.71429,0 0.16836,-0.16836 -0.16836,-0.54593 0,-0.71429 0.16836,-0.16835 0.50132,0.10648 0.71428,0 0.60234,-0.30117 0.82624,-1.1274 1.42857,-1.42857 0.21296,-0.10648 0.54593,0.16836 0.71429,0 0.16836,-0.16836 -0.16836,-0.54592 0,-0.71428 0.16836,-0.16836 0.54593,0.16836 0.71429,0 0.16835,-0.16836 -0.16836,-0.54593 0,-0.71429 0.16835,-0.16836 0.50132,0.10648 0.71428,0 0.30117,-0.15058 0.41312,-0.5637 0.71429,-0.71428 0.21296,-0.10648 0.54592,0.16835 0.71428,0 0.16836,-0.16836 -0.16836,-0.54593 0,-0.71429 0.16836,-0.16836 0.54593,0.16836 0.71429,0 0.16836,-0.16836 -0.16836,-0.54593 0,-0.71429 0.16836,-0.16835 0.54593,0.16836 0.71428,0 0.16836,-0.16835 -0.16835,-0.54592 0,-0.71428 0.16836,-0.16836 0.54593,0.16836 0.71429,0 0.16836,-0.16836 -0.16836,-0.54593 0,-0.71429 0.16836,-0.16836 0.54593,0.16836 0.71429,0 0.16835,-0.16836 -0.16836,-0.54592 0,-0.71428 0.16835,-0.16836 0.47619,0 0.71428,0 0,-0.2381 -0.16836,-0.54593 0,-0.71429 0.16836,-0.16836 0.54593,0.16836 0.71429,0 0.33671,-0.33672 -0.33672,-1.09185 0,-1.42857 0.16836,-0.16836 0.54592,0.16836 0.71428,0 0.16836,-0.16836 -0.16836,-0.54593 0,-0.71429 0.16836,-0.16835 0.54593,0.16836 0.71429,0 0.33672,-0.33671 -0.33672,-1.09185 0,-1.42857 0.16836,-0.16836 0.54593,0.16836 0.71428,0 0.33672,-0.33672 -0.33671,-1.09185 0,-1.42857 0.16836,-0.16836 0.54593,0.16836 0.71429,0 0.33672,-0.33672 -0.33672,-1.09185 0,-1.42857 0.16836,-0.16836 0.54593,0.16836 0.71429,0 0.16835,-0.16836 -0.16836,-0.54593 0,-0.71429 0.16835,-0.16835 0.54592,0.16836 0.71428,0 0.33672,-0.33671 -0.33672,-1.09185 0,-1.42857 0.16836,-0.16836 0.54593,0.16836 0.71429,0 0.16836,-0.16836 -0.16836,-0.54592 0,-0.71428 0.16836,-0.16836 0.54592,0.16836 0.71428,0 0.16836,-0.16836 -0.10648,-0.50133 0,-0.71429 0.15059,-0.30117 0.5637,-0.41312 0.71429,-0.71428 0.10648,-0.21296 -0.16836,-0.54593 0,-0.71429 0.16836,-0.16836 0.54593,0.16836 0.71428,0 0.33672,-0.33672 -0.33671,-1.09185 0,-1.42857 0.16836,-0.16836 0.54593,0.16836 0.71429,0 0.16836,-0.16836 -0.16836,-0.54593 0,-0.71429 0.16836,-0.16836 0.54593,0.16836 0.71429,0 0.33671,-0.33672 -0.33672,-1.09185 0,-1.42857 0.16835,-0.16836 0.54592,0.16836 0.71428,0 0.33672,-0.33672 -0.33672,-1.09185 0,-1.42857 0.16836,-0.16836 0.54593,0.16836 0.71429,0 0.35714,-0.35714 -0.35715,-1.78571 0,-2.14286 0.16836,-0.16836 0.54592,0.16836 0.71428,0 0.16836,-0.16836 0,-0.47619 0,-0.71428 0,-0.2381 0.19048,-0.85715 0,-0.71429 -1.07749,0.80812 -1.90476,1.90476 -2.85714,2.85714"
       id="path4270"
       inkscape:connector-curvature="0"
       inkscape:export-xdpi="45"
       inkscape:export-ydpi="45" />
    <path
       style="color:#000000;clip-rule:nonzero;display:inline;overflow:visible;visibility:visible;opacity:1;isolation:auto;mix-blend-mode:normal;color-interpolation:sRGB;color-interpolation-filters:linearRGB;solid-color:#000000;solid-opacity:1;fill:#008000;fill-opacity:1;fill-rule:nonzero;stroke:#00ff00;stroke-width:0.5;stroke-linecap:butt;stroke-linejoin:miter;stroke-miterlimit:4;stroke-dasharray:none;stroke-dashoffset:0;stroke-opacity:1;color-rendering:auto;image-rendering:auto;shape-rendering:auto;text-rendering:auto;enable-background:accumulate"
       id="path4272"
       sodipodi:type="arc"
       sodipodi:cx="350"
       sodipodi:cy="122.36221"
       sodipodi:rx="30"
       sodipodi:ry="30"
       sodipodi:start="5.5605492"
       sodipodi:end="5.5243336"
       sodipodi:open="true"
       d="m 372.50195,102.52129 a 30,30 0 0 1 -2.45811,42.16231 30,30 0 0 1 -42.18284,-2.07627 30,30 0 0 1 1.69428,-42.19992 30,30 0 0 1 42.21352,1.31214"
       inkscape:export-xdpi="45"
       inkscape:export-ydpi="45" />
    <text
       xml:space="preserve"
       style="font-style:normal;font-weight:normal;font-size:40px;line-height:125%;font-family:sans-serif;text-align:center;letter-spacing:0px;word-spacing:0px;text-anchor:middle;fill:#000000;fill-opacity:1;stroke:none;stroke-width:1px;stroke-linecap:butt;stroke-linejoin:miter;stroke-opacity:1"
       x="347.85718"
       y="444.50507"
       id="text4274"
       sodipodi:linespacing="125%"
       inkscape:export-xdpi="45"
       inkscape:export-ydpi="45"><tspan
         sodipodi:role="line"
         id="tspan4276"
         x="347.85718"
         y="444.50507"
         style="font-size:15px">bathroom</tspan></text>
    <text
       sodipodi:linespacing="125%"
       id="text4278"
       y="585.21936"
       x="514.28571"
       style="font-style:normal;font-weight:normal;font-size:40px;line-height:125%;font-family:sans-serif;text-align:center;letter-spacing:0px;word-spacing:0px;text-anchor:middle;fill:#000000;fill-opacity:1;stroke:none;stroke-width:1px;stroke-linecap:butt;stroke-linejoin:miter;stroke-opacity:1"
       xml:space="preserve"
       inkscape:export-xdpi="45"
       inkscape:export-ydpi="45"><tspan
         style="font-size:15px"
         y="585.21936"
         x="514.28571"
         id="tspan4280"
         sodipodi:role="line">kitchen</tspan></text>
    <text
       xml:space="preserve"
       style="font-style:normal;font-weight:normal;font-size:40px;line-height:125%;font-family:sans-serif;text-align:center;letter-spacing:0px;word-spacing:0px;text-anchor:middle;fill:#000000;fill-opacity:1;stroke:none;stroke-width:1px;stroke-linecap:butt;stroke-linejoin:miter;stroke-opacity:1"
       x="170.71428"
       y="109.50507"
       id="text4282"
       sodipodi:linespacing="125%"
       inkscape:export-xdpi="45"
       inkscape:export-ydpi="45"><tspan
         sodipodi:role="line"
         id="tspan4284"
         x="170.71428"
         y="109.50507"
         style="font-size:15px">den</tspan></text>
    <text
       xml:space="preserve"
       style="font-style:normal;font-weight:normal;font-size:40px;line-height:125%;font-family:sans-serif;text-align:center;letter-spacing:0px;word-spacing:0px;text-anchor:middle;fill:#000000;fill-opacity:1;stroke:none;stroke-width:1px;stroke-linecap:butt;stroke-linejoin:miter;stroke-opacity:1"
       x="255"
       y="567.36218"
       id="text4294"
       sodipodi:linespacing="125%"
       inkscape:export-xdpi="45"
       inkscape:export-ydpi="45"><tspan
         sodipodi:role="line"
         id="tspan4296"
         x="255"
         y="567.36218"
         style="font-size:12.5px">grey = unused detail space</tspan></text>
    <rect
       inkscape:export-ydpi="45"
       inkscape:export-xdpi="45"
       y="342.36221"
       x="500.71426"
       height="50.000008"
       width="170"
       id="rect4317"
       style="color:#000000;clip-rule:nonzero;display:inline;overflow:visible;visibility:visible;opacity:1;isolation:auto;mix-blend-mode:normal;color-interpolation:sRGB;color-interpolation-filters:linearRGB;solid-color:#000000;solid-opacity:1;fill:#ffffff;fill-opacity:1;fill-rule:nonzero;stroke:#280b0b;stroke-width:0.5;stroke-linecap:butt;stroke-linejoin:miter;stroke-miterlimit:4;stroke-dasharray:none;stroke-dashoffset:0;stroke-opacity:1;color-rendering:auto;image-rendering:auto;shape-rendering:auto;text-rendering:auto;enable-background:accumulate" />
    <g
       id="g4319"
       transform="matrix(0.99955917,0,0,1.1807348,0.246865,-89.003318)">
      <rect
         inkscape:export-ydpi="45"
         inkscape:export-xdpi="45"
         y="342.41815"
         x="500.05594"
         height="149.88814"
         width="119.88814"
         id="rect4138"
         style="color:#000000;clip-rule:nonzero;display:inline;overflow:visible;visibility:visible;opacity:1;isolation:auto;mix-blend-mode:normal;color-interpolation:sRGB;color-interpolation-filters:linearRGB;solid-color:#000000;solid-opacity:1;fill:#ffffff;fill-opacity:1;fill-rule:nonzero;stroke:#280b0b;stroke-width:0.61185867;stroke-linecap:butt;stroke-linejoin:miter;stroke-miterlimit:4;stroke-dasharray:none;stroke-dashoffset:0;stroke-opacity:1;color-rendering:auto;image-rendering:auto;shape-rendering:auto;text-rendering:auto;enable-background:accumulate" />
      <text
         inkscape:export-ydpi="45"
         inkscape:export-xdpi="45"
         xml:space="preserve"
         style="font-style:normal;font-weight:normal;font-size:40px;line-height:125%;font-family:sans-serif;text-align:center;letter-spacing:0px;word-spacing:0px;text-anchor:middle;fill:#000000;fill-opacity:1;stroke:none;stroke-width:1px;stroke-linecap:butt;stroke-linejoin:miter;stroke-opacity:1"
         x="559.28571"
         y="429.5051"
         id="text4290"
         sodipodi:linespacing="125%"><tspan
           sodipodi:role="line"
           id="tspan4292"
           x="559.28571"
           y="429.5051"
           style="font-size:15px">bedroom</tspan></text>
    </g>
  </g>
</svg>
